<svg id="0038e4fb-7e7b-47a2-8a2f-5a0b6e4c315f" data-name="Слой 1" xmlns="http://www.w3.org/2000/svg" viewBox="0 0 20 20">
  <defs>
    <style>
      .\35 315c92c-3e4a-4d25-a875-2a7c8bec0f0e {
        fill: none;
      }

      .\30 b0a73ad-6ae4-49a3-8b00-c1b94b2b4c9a {
        fill: #55565a;
        fill-rule: evenodd;
      }

      .\32 86657eb-a734-433f-a868-4d57425cf267 {
        opacity: 0.1;
      }
    </style>
  </defs>
  <title>notific.trash_dark</title>
  <rect class="5315c92c-3e4a-4d25-a875-2a7c8bec0f0e" width="20" height="20"/>
  <path class="0b0a73ad-6ae4-49a3-8b00-c1b94b2b4c9a" d="M5.9993,15h1V6h-1v9Zm11.5-13-4.5,0V1.3569A1.3587,1.3587,0,0,0,11.6418,0H7.3565A1.3587,1.3587,0,0,0,5.9992,1.3569V2l-4.5,0a0.5,0.5,0,0,0,0,1H2.0052L1.9991,17.4615A1.5934,1.5934,0,0,0,3.6183,19H15.38a1.5935,1.5935,0,0,0,1.6192-1.5382L16.9931,3h0.5062A0.5,0.5,0,1,0,17.4993,2Zm-10.5-.6434A0.3575,0.3575,0,0,1,7.3565,1h4.2853a0.3575,0.3575,0,0,1,.3573.3569V2h-5V1.3569Zm8.9781,16.06A0.5911,0.5911,0,0,1,15.38,18H3.6183a0.5911,0.5911,0,0,1-.5973-0.583L2.9994,3h13ZM11.9992,15h1V6h-1v9Zm-3,0h1V6h-1v9Z"/>
  <g class="286657eb-a734-433f-a868-4d57425cf267">
    <path class="0b0a73ad-6ae4-49a3-8b00-c1b94b2b4c9a" d="M3,3L3.0216,17.4165A0.5911,0.5911,0,0,0,3.6189,18H15.3806a0.5911,0.5911,0,0,0,.5973-0.583L16,3H3ZM7,15H6V6H7v9Zm3,0H9V6h1v9Zm3,0H12V6h1v9Z"/>
  </g>
</svg>
